%
M48
M71
T01C0.600
T02C0.813
T03C1.016
T04C1.194
T05C1.200
T06C1.803
%
T01
X40640Y29845
X40005Y17145
X33655Y42545
X45720Y26035
X43815Y44450
T02
X9525Y40640
X35560Y12700
X35560Y5080
X38100Y5080
X40640Y5080
X40640Y12700
X43180Y12700
X45720Y12700
X30480Y12700
X30480Y5080
X33020Y5080
X33020Y12700
X38100Y12700
X45720Y5080
X43180Y5080
X4445Y40640
X3810Y27940
X8890Y27940
X6350Y27940
X6985Y40640
T03
X10160Y58420
X12700Y58420
X20320Y48260
X22860Y48260
X20320Y45720
X22860Y45720
X22860Y43180
X20320Y43180
X3810Y58420
X6350Y58420
X44450Y59690
X39370Y59690
X41910Y59690
X46990Y59690
X49530Y59690
X52070Y59690
X54610Y59690
X57150Y59690
T04
X16459Y15138
X11481Y15138
X16459Y2642
X11481Y2642
T05
X5080Y5080
X58420Y5080
X33020Y53340
T06
X9474Y8890
X18466Y8890
M30
